<svg xmlns="http://www.w3.org/2000/svg" xmlns:xlink="http://www.w3.org/1999/xlink" height="300px" width="300px" fill="#000000" version="1.1" x="0px" y="0px" viewBox="0 0 100 100" enable-background="new 0 0 100 100" xml:space="preserve"><path d="M94.5,50.474c0-1.465-0.899-2.376-2.162-3.042c-0.076-0.048-85.45-37.288-85.45-37.288C6.669,10.045,6.438,10,6.204,10  c-0.327,0-0.65,0.089-0.933,0.272C4.789,10.582,4.5,11.119,4.5,11.686v33.773c0,0.91,0.721,1.651,1.635,1.686L90.627,50.5  L6.135,53.849C5.221,53.887,4.5,54.628,4.5,55.539v33.773c0,0.565,0.289,1.102,0.771,1.415C5.553,90.906,5.877,91,6.204,91  c0.231,0,0.463-0.047,0.684-0.146l84.519-36.855C93.047,53.377,94.5,52.249,94.5,50.474z"/></svg>